<svg width="1280" height="49" viewBox="0 0 1280 49" fill="none" xmlns="http://www.w3.org/2000/svg">
<path d="M1188.35 35.4615H1183.74L1183.77 33.0836H1188.35C1189.92 33.0836 1191.24 32.7554 1192.29 32.099C1193.34 31.4326 1194.12 30.5036 1194.65 29.3121C1195.18 28.1105 1195.45 26.7069 1195.45 25.1014V23.7533C1195.45 22.4911 1195.3 21.3703 1195 20.3908C1194.69 19.4013 1194.25 18.5682 1193.66 17.8917C1193.08 17.205 1192.36 16.685 1191.51 16.3316C1190.68 15.9782 1189.71 15.8015 1188.62 15.8015H1183.65V13.4083H1188.62C1190.06 13.4083 1191.38 13.6507 1192.57 14.1354C1193.77 14.6099 1194.79 15.3016 1195.65 16.2104C1196.52 17.1091 1197.18 18.1997 1197.65 19.4821C1198.11 20.7544 1198.35 22.1882 1198.35 23.7836V25.1014C1198.35 26.6968 1198.11 28.1357 1197.65 29.4181C1197.18 30.6904 1196.51 31.7759 1195.63 32.6746C1194.77 33.5733 1193.72 34.265 1192.48 34.7497C1191.26 35.2243 1189.88 35.4615 1188.35 35.4615ZM1185.3 13.4083V35.4615H1182.38V13.4083H1185.3ZM1205.12 21.648V35.4615H1202.31V19.0731H1205.04L1205.12 21.648ZM1210.23 18.9822L1210.22 21.5874C1209.99 21.5369 1209.77 21.5066 1209.55 21.4965C1209.35 21.4763 1209.12 21.4662 1208.86 21.4662C1208.21 21.4662 1207.64 21.5672 1207.15 21.7692C1206.65 21.9711 1206.23 22.2538 1205.89 22.6174C1205.54 22.9809 1205.27 23.4151 1205.07 23.92C1204.88 24.4147 1204.75 24.96 1204.69 25.5558L1203.9 26.0102C1203.9 25.0206 1204 24.0916 1204.19 23.2232C1204.39 22.3548 1204.7 21.5874 1205.12 20.921C1205.53 20.2444 1206.05 19.7193 1206.69 19.3457C1207.34 18.962 1208.1 18.7702 1208.99 18.7702C1209.19 18.7702 1209.43 18.7954 1209.69 18.8459C1209.95 18.8863 1210.13 18.9317 1210.23 18.9822ZM1211.78 27.4491V27.1007C1211.78 25.9193 1211.95 24.8237 1212.29 23.8139C1212.64 22.7941 1213.13 21.9105 1213.78 21.1633C1214.43 20.406 1215.21 19.8203 1216.13 19.4063C1217.05 18.9822 1218.08 18.7702 1219.22 18.7702C1220.37 18.7702 1221.4 18.9822 1222.32 19.4063C1223.25 19.8203 1224.04 20.406 1224.68 21.1633C1225.34 21.9105 1225.84 22.7941 1226.18 23.8139C1226.53 24.8237 1226.7 25.9193 1226.7 27.1007V27.4491C1226.7 28.6305 1226.53 29.7261 1226.18 30.7359C1225.84 31.7456 1225.34 32.6292 1224.68 33.3865C1224.04 34.1337 1223.26 34.7194 1222.34 35.1435C1221.43 35.5575 1220.4 35.7645 1219.25 35.7645C1218.1 35.7645 1217.06 35.5575 1216.14 35.1435C1215.22 34.7194 1214.44 34.1337 1213.78 33.3865C1213.13 32.6292 1212.64 31.7456 1212.29 30.7359C1211.95 29.7261 1211.78 28.6305 1211.78 27.4491ZM1214.58 27.1007V27.4491C1214.58 28.267 1214.68 29.0395 1214.87 29.7665C1215.06 30.4834 1215.35 31.1196 1215.73 31.6749C1216.13 32.2303 1216.62 32.6696 1217.2 32.9927C1217.79 33.3057 1218.47 33.4622 1219.25 33.4622C1220.01 33.4622 1220.69 33.3057 1221.26 32.9927C1221.85 32.6696 1222.33 32.2303 1222.72 31.6749C1223.1 31.1196 1223.39 30.4834 1223.58 29.7665C1223.78 29.0395 1223.88 28.267 1223.88 27.4491V27.1007C1223.88 26.2929 1223.78 25.5305 1223.58 24.8136C1223.39 24.0866 1223.09 23.4454 1222.7 22.89C1222.32 22.3245 1221.83 21.8802 1221.25 21.5571C1220.67 21.234 1219.99 21.0724 1219.22 21.0724C1218.45 21.0724 1217.77 21.234 1217.19 21.5571C1216.61 21.8802 1216.13 22.3245 1215.73 22.89C1215.35 23.4454 1215.06 24.0866 1214.87 24.8136C1214.68 25.5305 1214.58 26.2929 1214.58 27.1007ZM1233.02 22.2236V41.7625H1230.2V19.0731H1232.77L1233.02 22.2236ZM1244.06 27.131V27.4491C1244.06 28.6406 1243.92 29.7463 1243.63 30.7662C1243.35 31.7759 1242.94 32.6544 1242.39 33.4016C1241.86 34.1489 1241.19 34.7295 1240.41 35.1435C1239.62 35.5575 1238.72 35.7645 1237.7 35.7645C1236.66 35.7645 1235.74 35.5928 1234.94 35.2495C1234.14 34.9062 1233.46 34.4063 1232.91 33.75C1232.35 33.0937 1231.91 32.306 1231.58 31.3872C1231.25 30.4683 1231.03 29.4333 1230.91 28.2821V26.5857C1231.03 25.374 1231.26 24.2885 1231.59 23.3292C1231.92 22.37 1232.36 21.5521 1232.91 20.8755C1233.46 20.1889 1234.14 19.6689 1234.92 19.3154C1235.71 18.9519 1236.62 18.7702 1237.65 18.7702C1238.68 18.7702 1239.59 18.9721 1240.39 19.376C1241.19 19.7698 1241.86 20.3353 1242.41 21.0724C1242.95 21.8096 1243.36 22.6931 1243.63 23.7231C1243.92 24.7429 1244.06 25.8789 1244.06 27.131ZM1241.24 27.4491V27.131C1241.24 26.3131 1241.15 25.5457 1240.98 24.8287C1240.81 24.1017 1240.54 23.4656 1240.18 22.9203C1239.83 22.3649 1239.37 21.9307 1238.82 21.6177C1238.26 21.2946 1237.6 21.133 1236.83 21.133C1236.13 21.133 1235.51 21.2542 1234.98 21.4965C1234.47 21.7389 1234.03 22.067 1233.67 22.481C1233.3 22.885 1233.01 23.3494 1232.77 23.8745C1232.55 24.3895 1232.38 24.9247 1232.27 25.48V29.403C1232.48 30.1098 1232.76 30.7762 1233.12 31.4023C1233.48 32.0183 1233.97 32.5181 1234.58 32.9018C1235.18 33.2754 1235.94 33.4622 1236.86 33.4622C1237.62 33.4622 1238.27 33.3057 1238.82 32.9927C1239.37 32.6696 1239.83 32.2303 1240.18 31.6749C1240.54 31.1196 1240.81 30.4834 1240.98 29.7665C1241.15 29.0395 1241.24 28.267 1241.24 27.4491ZM1250.68 12.1966V35.4615H1247.86V12.1966H1250.68ZM1261.98 35.7645C1260.83 35.7645 1259.8 35.5726 1258.87 35.1889C1257.95 34.7951 1257.16 34.2448 1256.49 33.5379C1255.84 32.8311 1255.33 31.993 1254.98 31.0236C1254.62 30.0543 1254.45 28.994 1254.45 27.8429V27.2067C1254.45 25.8738 1254.64 24.6874 1255.04 23.6473C1255.43 22.5972 1255.97 21.7086 1256.64 20.9815C1257.32 20.2545 1258.09 19.7042 1258.95 19.3306C1259.8 18.957 1260.69 18.7702 1261.61 18.7702C1262.78 18.7702 1263.79 18.9721 1264.64 19.376C1265.5 19.7799 1266.2 20.3454 1266.75 21.0724C1267.29 21.7894 1267.7 22.6376 1267.96 23.617C1268.22 24.5864 1268.35 25.6467 1268.35 26.7978V28.0549H1256.11V25.7678H1265.55V25.5558C1265.51 24.8287 1265.36 24.1219 1265.1 23.4353C1264.84 22.7486 1264.44 22.1832 1263.88 21.7389C1263.33 21.2946 1262.57 21.0724 1261.61 21.0724C1260.98 21.0724 1260.39 21.2087 1259.85 21.4814C1259.32 21.7439 1258.86 22.1377 1258.48 22.6628C1258.09 23.1879 1257.79 23.8291 1257.58 24.5864C1257.37 25.3437 1257.26 26.2172 1257.26 27.2067V27.8429C1257.26 28.6204 1257.37 29.3525 1257.58 30.0391C1257.8 30.7157 1258.12 31.3114 1258.54 31.8264C1258.96 32.3414 1259.47 32.7453 1260.07 33.0381C1260.67 33.3309 1261.36 33.4774 1262.13 33.4774C1263.12 33.4774 1263.95 33.2754 1264.64 32.8715C1265.33 32.4676 1265.93 31.9274 1266.44 31.2508L1268.14 32.5989C1267.79 33.134 1267.34 33.644 1266.79 34.1287C1266.25 34.6133 1265.58 35.0072 1264.78 35.3101C1263.99 35.613 1263.06 35.7645 1261.98 35.7645ZM1278.48 19.0731V21.2239H1269.62V19.0731H1278.48ZM1272.62 15.0896H1275.43V31.4023C1275.43 31.9577 1275.51 32.3767 1275.68 32.6595C1275.85 32.9422 1276.08 33.129 1276.35 33.2199C1276.62 33.3108 1276.91 33.3562 1277.23 33.3562C1277.46 33.3562 1277.7 33.336 1277.95 33.2956C1278.22 33.2451 1278.41 33.2047 1278.55 33.1744L1278.56 35.4615C1278.34 35.5322 1278.05 35.5979 1277.68 35.6585C1277.33 35.7291 1276.9 35.7645 1276.39 35.7645C1275.71 35.7645 1275.08 35.6282 1274.5 35.3555C1273.93 35.0829 1273.47 34.6285 1273.12 33.9923C1272.79 33.3461 1272.62 32.4777 1272.62 31.3872V15.0896Z" fill="#999999"/>
<path d="M1127.27 17.8337C1138.82 -2.21399 1159.39 3.97684 1152.93 24.752C1146.47 45.5271 1165.45 25.6829 1164.53 37.7186C1163.62 49.7544 1127.7 48.8286 1139.24 36.7826C1150.78 24.7367 1152.11 20.601 1140.24 28.3535C1128.37 36.1061 1118.43 33.1811 1127.27 17.8337Z" fill="#999999"/>
<path d="M1127.27 17.8337C1138.82 -2.21399 1159.39 3.97684 1152.93 24.752C1146.47 45.5271 1165.45 25.6829 1164.53 37.7186C1163.62 49.7544 1127.7 48.8286 1139.24 36.7826C1150.78 24.7367 1152.11 20.601 1140.24 28.3535C1128.37 36.1061 1118.43 33.1811 1127.27 17.8337Z" fill="#999999"/>
<path d="M898.048 23.7391V25.1325C898.048 26.7885 897.841 28.2729 897.427 29.5856C897.013 30.8983 896.417 32.0141 895.639 32.9329C894.862 33.8518 893.928 34.5536 892.837 35.0383C891.757 35.523 890.545 35.7653 889.202 35.7653C887.9 35.7653 886.703 35.523 885.612 35.0383C884.532 34.5536 883.593 33.8518 882.795 32.9329C882.008 32.0141 881.397 30.8983 880.962 29.5856C880.528 28.2729 880.311 26.7885 880.311 25.1325V23.7391C880.311 22.083 880.523 20.6037 880.947 19.3011C881.382 17.9885 881.992 16.8727 882.78 15.9538C883.568 15.0248 884.502 14.318 885.582 13.8333C886.673 13.3486 887.869 13.1063 889.172 13.1063C890.515 13.1063 891.727 13.3486 892.807 13.8333C893.898 14.318 894.832 15.0248 895.609 15.9538C896.397 16.8727 896.998 17.9885 897.412 19.3011C897.836 20.6037 898.048 22.083 898.048 23.7391ZM895.155 25.1325V23.7088C895.155 22.3961 895.018 21.2348 894.746 20.2251C894.483 19.2153 894.094 18.3671 893.579 17.6805C893.064 16.9938 892.433 16.4738 891.686 16.1204C890.949 15.767 890.111 15.5903 889.172 15.5903C888.263 15.5903 887.44 15.767 886.703 16.1204C885.976 16.4738 885.35 16.9938 884.825 17.6805C884.31 18.3671 883.911 19.2153 883.628 20.2251C883.346 21.2348 883.204 22.3961 883.204 23.7088V25.1325C883.204 26.4553 883.346 27.6266 883.628 28.6465C883.911 29.6563 884.315 30.5095 884.84 31.2063C885.375 31.8929 886.006 32.4129 886.733 32.7663C887.47 33.1198 888.293 33.2965 889.202 33.2965C890.151 33.2965 890.994 33.1198 891.732 32.7663C892.469 32.4129 893.09 31.8929 893.595 31.2063C894.11 30.5095 894.498 29.6563 894.761 28.6465C895.023 27.6266 895.155 26.4553 895.155 25.1325ZM904.803 22.2244V41.7633H901.986V19.074H904.561L904.803 22.2244ZM915.845 27.1319V27.4499C915.845 28.6415 915.703 29.7471 915.421 30.767C915.138 31.7768 914.724 32.6553 914.179 33.4025C913.643 34.1497 912.982 34.7303 912.194 35.1443C911.407 35.5583 910.503 35.7653 909.483 35.7653C908.443 35.7653 907.524 35.5937 906.727 35.2504C905.929 34.907 905.252 34.4072 904.697 33.7509C904.142 33.0945 903.697 32.3069 903.364 31.388C903.041 30.4691 902.819 29.4341 902.698 28.283V26.5866C902.819 25.3749 903.046 24.2894 903.379 23.3301C903.712 22.3708 904.152 21.5529 904.697 20.8764C905.252 20.1897 905.924 19.6697 906.711 19.3163C907.499 18.9528 908.408 18.771 909.438 18.771C910.468 18.771 911.382 18.973 912.179 19.3769C912.977 19.7707 913.649 20.3362 914.194 21.0733C914.739 21.8104 915.148 22.694 915.421 23.7239C915.703 24.7438 915.845 25.8798 915.845 27.1319ZM913.028 27.4499V27.1319C913.028 26.314 912.942 25.5465 912.77 24.8296C912.598 24.1026 912.331 23.4664 911.967 22.9211C911.614 22.3658 911.159 21.9316 910.604 21.6186C910.049 21.2954 909.387 21.1339 908.62 21.1339C907.913 21.1339 907.297 21.255 906.772 21.4974C906.257 21.7397 905.818 22.0679 905.454 22.4819C905.091 22.8858 904.793 23.3503 904.561 23.8754C904.338 24.3904 904.172 24.9255 904.061 25.4809V29.4038C904.263 30.1107 904.545 30.7771 904.909 31.4032C905.273 32.0191 905.757 32.5189 906.363 32.9027C906.969 33.2763 907.731 33.4631 908.65 33.4631C909.408 33.4631 910.059 33.3066 910.604 32.9935C911.159 32.6704 911.614 32.2312 911.967 31.6758C912.331 31.1204 912.598 30.4843 912.77 29.7673C912.942 29.0403 913.028 28.2678 913.028 27.4499ZM926.22 35.7653C925.079 35.7653 924.044 35.5735 923.115 35.1898C922.196 34.796 921.403 34.2456 920.737 33.5388C920.081 32.832 919.576 31.9939 919.222 31.0245C918.869 30.0551 918.692 28.9949 918.692 27.8437V27.2076C918.692 25.8747 918.889 24.6882 919.283 23.6482C919.677 22.598 920.212 21.7094 920.889 20.9824C921.565 20.2554 922.332 19.7051 923.191 19.3314C924.049 18.9578 924.938 18.771 925.857 18.771C927.028 18.771 928.038 18.973 928.886 19.3769C929.744 19.7808 930.446 20.3463 930.991 21.0733C931.536 21.7902 931.94 22.6384 932.203 23.6179C932.465 24.5873 932.597 25.6475 932.597 26.7986V28.0558H920.358V25.7687H929.795V25.5566C929.754 24.8296 929.603 24.1228 929.34 23.4361C929.088 22.7495 928.684 22.184 928.129 21.7397C927.573 21.2954 926.816 21.0733 925.857 21.0733C925.22 21.0733 924.635 21.2096 924.1 21.4822C923.564 21.7448 923.105 22.1386 922.721 22.6637C922.338 23.1887 922.04 23.8299 921.828 24.5873C921.616 25.3446 921.51 26.218 921.51 27.2076V27.8437C921.51 28.6213 921.616 29.3533 921.828 30.04C922.05 30.7165 922.368 31.3123 922.782 31.8273C923.206 32.3422 923.716 32.7461 924.312 33.039C924.917 33.3318 925.604 33.4782 926.372 33.4782C927.361 33.4782 928.199 33.2763 928.886 32.8724C929.572 32.4685 930.173 31.9282 930.688 31.2517L932.385 32.5997C932.031 33.1349 931.582 33.6448 931.037 34.1295C930.491 34.6142 929.82 35.008 929.022 35.3109C928.235 35.6139 927.301 35.7653 926.22 35.7653ZM938.67 22.5728V35.4624H935.868V19.074H938.519L938.67 22.5728ZM938.004 26.6472L936.838 26.6017C936.848 25.4809 937.014 24.4459 937.338 23.4967C937.661 22.5374 938.115 21.7044 938.701 20.9975C939.286 20.2907 939.983 19.7454 940.791 19.3617C941.609 18.9679 942.513 18.771 943.502 18.771C944.31 18.771 945.037 18.8821 945.683 19.1042C946.329 19.3163 946.88 19.6596 947.334 20.1342C947.799 20.6088 948.152 21.2247 948.394 21.9821C948.637 22.7293 948.758 23.6431 948.758 24.7236V35.4624H945.941V24.6933C945.941 23.835 945.815 23.1483 945.562 22.6334C945.31 22.1083 944.941 21.7296 944.456 21.4974C943.972 21.255 943.376 21.1339 942.669 21.1339C941.972 21.1339 941.336 21.2803 940.761 21.5731C940.195 21.8659 939.705 22.2699 939.291 22.7848C938.888 23.2998 938.569 23.8905 938.337 24.557C938.115 25.2133 938.004 25.91 938.004 26.6472ZM959.406 35.4624H954.801L954.832 33.0844H959.406C960.981 33.0844 962.294 32.7562 963.344 32.0999C964.394 31.4334 965.182 30.5045 965.707 29.3129C966.242 28.1113 966.51 26.7078 966.51 25.1022V23.7542C966.51 22.492 966.358 21.3712 966.055 20.3917C965.752 19.4021 965.308 18.5691 964.722 17.8925C964.137 17.2059 963.42 16.6859 962.572 16.3324C961.733 15.979 960.769 15.8023 959.679 15.8023H954.711V13.4092H959.679C961.123 13.4092 962.44 13.6515 963.632 14.1362C964.823 14.6108 965.848 15.3025 966.706 16.2113C967.575 17.11 968.241 18.2005 968.706 19.4829C969.17 20.7552 969.403 22.1891 969.403 23.7845V25.1022C969.403 26.6977 969.17 28.1366 968.706 29.419C968.241 30.6913 967.57 31.7768 966.691 32.6755C965.823 33.5741 964.773 34.2658 963.541 34.7505C962.319 35.2251 960.941 35.4624 959.406 35.4624ZM956.361 13.4092V35.4624H953.438V13.4092H956.361ZM972.629 27.4499V27.1016C972.629 25.9201 972.8 24.8246 973.144 23.8148C973.487 22.7949 973.982 21.9114 974.628 21.1642C975.274 20.4068 976.057 19.8212 976.976 19.4072C977.895 18.9831 978.925 18.771 980.066 18.771C981.217 18.771 982.252 18.9831 983.171 19.4072C984.1 19.8212 984.887 20.4068 985.534 21.1642C986.19 21.9114 986.69 22.7949 987.033 23.8148C987.376 24.8246 987.548 25.9201 987.548 27.1016V27.4499C987.548 28.6314 987.376 29.7269 987.033 30.7367C986.69 31.7465 986.19 32.63 985.534 33.3873C984.887 34.1346 984.105 34.7202 983.186 35.1443C982.277 35.5583 981.247 35.7653 980.096 35.7653C978.945 35.7653 977.91 35.5583 976.991 35.1443C976.072 34.7202 975.284 34.1346 974.628 33.3873C973.982 32.63 973.487 31.7465 973.144 30.7367C972.8 29.7269 972.629 28.6314 972.629 27.4499ZM975.431 27.1016V27.4499C975.431 28.2678 975.527 29.0403 975.719 29.7673C975.91 30.4843 976.198 31.1204 976.582 31.6758C976.976 32.2312 977.466 32.6704 978.051 32.9935C978.637 33.3066 979.318 33.4631 980.096 33.4631C980.863 33.4631 981.535 33.3066 982.11 32.9935C982.696 32.6704 983.181 32.2312 983.564 31.6758C983.948 31.1204 984.236 30.4843 984.428 29.7673C984.63 29.0403 984.731 28.2678 984.731 27.4499V27.1016C984.731 26.2938 984.63 25.5314 984.428 24.8145C984.236 24.0874 983.943 23.4462 983.549 22.8909C983.166 22.3254 982.681 21.8811 982.095 21.558C981.52 21.2348 980.843 21.0733 980.066 21.0733C979.298 21.0733 978.622 21.2348 978.036 21.558C977.46 21.8811 976.976 22.3254 976.582 22.8909C976.198 23.4462 975.91 24.0874 975.719 24.8145C975.527 25.5314 975.431 26.2938 975.431 27.1016ZM990.32 27.4499V27.1016C990.32 25.9201 990.491 24.8246 990.835 23.8148C991.178 22.7949 991.673 21.9114 992.319 21.1642C992.965 20.4068 993.748 19.8212 994.667 19.4072C995.586 18.9831 996.616 18.771 997.757 18.771C998.908 18.771 999.943 18.9831 1000.86 19.4072C1001.79 19.8212 1002.58 20.4068 1003.22 21.1642C1003.88 21.9114 1004.38 22.7949 1004.72 23.8148C1005.07 24.8246 1005.24 25.9201 1005.24 27.1016V27.4499C1005.24 28.6314 1005.07 29.7269 1004.72 30.7367C1004.38 31.7465 1003.88 32.63 1003.22 33.3873C1002.58 34.1346 1001.8 34.7202 1000.88 35.1443C999.968 35.5583 998.938 35.7653 997.787 35.7653C996.636 35.7653 995.601 35.5583 994.682 35.1443C993.763 34.7202 992.975 34.1346 992.319 33.3873C991.673 32.63 991.178 31.7465 990.835 30.7367C990.491 29.7269 990.32 28.6314 990.32 27.4499ZM993.122 27.1016V27.4499C993.122 28.2678 993.218 29.0403 993.41 29.7673C993.602 30.4843 993.889 31.1204 994.273 31.6758C994.667 32.2312 995.157 32.6704 995.742 32.9935C996.328 33.3066 997.009 33.4631 997.787 33.4631C998.554 33.4631 999.226 33.3066 999.801 32.9935C1000.39 32.6704 1000.87 32.2312 1001.26 31.6758C1001.64 31.1204 1001.93 30.4843 1002.12 29.7673C1002.32 29.0403 1002.42 28.2678 1002.42 27.4499V27.1016C1002.42 26.2938 1002.32 25.5314 1002.12 24.8145C1001.93 24.0874 1001.63 23.4462 1001.24 22.8909C1000.86 22.3254 1000.37 21.8811 999.786 21.558C999.211 21.2348 998.534 21.0733 997.757 21.0733C996.989 21.0733 996.313 21.2348 995.727 21.558C995.152 21.8811 994.667 22.3254 994.273 22.8909C993.889 23.4462 993.602 24.0874 993.41 24.8145C993.218 25.5314 993.122 26.2938 993.122 27.1016ZM1011.56 21.6488V35.4624H1008.75V19.074H1011.48L1011.56 21.6488ZM1016.67 18.9831L1016.66 21.5883C1016.43 21.5378 1016.21 21.5075 1015.99 21.4974C1015.79 21.4772 1015.56 21.4671 1015.3 21.4671C1014.65 21.4671 1014.08 21.5681 1013.58 21.77C1013.09 21.972 1012.67 22.2547 1012.33 22.6182C1011.98 22.9817 1011.71 23.4159 1011.51 23.9208C1011.32 24.4156 1011.19 24.9609 1011.13 25.5566L1010.34 26.011C1010.34 25.0215 1010.44 24.0925 1010.63 23.2241C1010.83 22.3557 1011.14 21.5883 1011.56 20.9218C1011.97 20.2453 1012.49 19.7202 1013.13 19.3466C1013.78 18.9629 1014.54 18.771 1015.43 18.771C1015.63 18.771 1015.87 18.7963 1016.13 18.8468C1016.39 18.8871 1016.57 18.9326 1016.67 18.9831Z" fill="#999999"/>
<path d="M847.997 10.6824L863.253 5.59546L847.997 25.9433L863.253 46.2911L847.997 41.2042L863.253 5.59546V46.2911" fill="#999999"/>
<path d="M847.997 10.6825H822.571L847.997 25.9434L822.571 41.2043H847.997L822.571 10.6825V41.2043" fill="#999999"/>
<path d="M654.645 43.7979V19.617L654.945 15.718H658.131V43.7979H654.645ZM641.017 26.084V25.6903C641.017 24.1407 641.198 22.7349 641.561 21.4727C641.923 20.1981 642.454 19.1046 643.154 18.1924C643.854 17.2801 644.697 16.5803 645.685 16.0929C646.684 15.5931 647.822 15.3431 649.096 15.3431C650.371 15.3431 651.489 15.5681 652.452 16.0179C653.426 16.4553 654.251 17.0989 654.926 17.9487C655.613 18.7859 656.157 19.7982 656.557 20.9853C656.957 22.1725 657.231 23.5159 657.381 25.0155V26.74C657.244 28.2271 656.975 29.5643 656.575 30.7514C656.176 31.9386 655.632 32.9508 654.945 33.7881C654.27 34.6254 653.439 35.2689 652.452 35.7188C651.477 36.1562 650.346 36.3749 649.059 36.3749C647.809 36.3749 646.684 36.1187 645.685 35.6064C644.697 35.094 643.854 34.3754 643.154 33.4507C642.467 32.5259 641.936 31.4387 641.561 30.1891C641.198 28.9269 641.017 27.5586 641.017 26.084ZM644.504 25.6903V26.084C644.504 27.0962 644.61 28.0522 644.822 28.9519C645.035 29.8392 645.36 30.6265 645.797 31.3138C646.247 32.0011 646.809 32.5447 647.484 32.9446C648.171 33.332 648.984 33.5257 649.921 33.5257C651.071 33.5257 652.027 33.2757 652.789 32.7759C653.564 32.276 654.182 31.6199 654.645 30.8077C655.107 29.9829 655.463 29.1019 655.713 28.1646V23.6471C655.576 22.9598 655.357 22.2912 655.057 21.6414C654.77 20.9916 654.395 20.4105 653.932 19.8981C653.47 19.3733 652.908 18.9609 652.245 18.661C651.596 18.3486 650.833 18.1924 649.958 18.1924C649.009 18.1924 648.19 18.3923 647.503 18.7922C646.816 19.1921 646.247 19.7419 645.797 20.4417C645.36 21.1291 645.035 21.9226 644.822 22.8223C644.61 23.7221 644.504 24.6781 644.504 25.6903ZM667.166 18.9047V36H663.698V15.718H667.073L667.166 18.9047ZM673.502 15.6056L673.483 18.8297C673.196 18.7672 672.921 18.7297 672.659 18.7172C672.409 18.6922 672.121 18.6797 671.796 18.6797C670.996 18.6797 670.29 18.8047 669.678 19.0546C669.066 19.3046 668.547 19.6545 668.122 20.1043C667.697 20.5542 667.36 21.0916 667.11 21.7164C666.873 22.3287 666.716 23.0035 666.641 23.7408L665.667 24.3032C665.667 23.0785 665.785 21.9288 666.023 20.8541C666.273 19.7794 666.654 18.8297 667.166 18.0049C667.679 17.1676 668.328 16.5178 669.116 16.0554C669.916 15.5806 670.865 15.3431 671.965 15.3431C672.215 15.3431 672.502 15.3744 672.827 15.4369C673.152 15.4868 673.377 15.5431 673.502 15.6056ZM684.449 33.5257C685.274 33.5257 686.036 33.357 686.736 33.0196C687.436 32.6822 688.011 32.2198 688.46 31.6324C688.91 31.0326 689.167 30.3515 689.229 29.5892H692.528C692.466 30.7889 692.059 31.9074 691.31 32.9446C690.572 33.9693 689.604 34.8003 688.404 35.4377C687.205 36.0625 685.886 36.3749 684.449 36.3749C682.924 36.3749 681.594 36.1062 680.456 35.5689C679.332 35.0315 678.394 34.2942 677.645 33.357C676.907 32.4197 676.351 31.345 675.976 30.1328C675.614 28.9082 675.433 27.6148 675.433 26.2527V25.4654C675.433 24.1032 675.614 22.8161 675.976 21.6039C676.351 20.3793 676.907 19.2983 677.645 18.3611C678.394 17.4238 679.332 16.6865 680.456 16.1492C681.594 15.6118 682.924 15.3431 684.449 15.3431C686.036 15.3431 687.423 15.668 688.61 16.3179C689.798 16.9552 690.729 17.83 691.403 18.9422C692.091 20.0419 692.466 21.2915 692.528 22.6911H689.229C689.167 21.8539 688.929 21.0978 688.517 20.423C688.117 19.7482 687.567 19.2108 686.867 18.8109C686.18 18.3985 685.374 18.1924 684.449 18.1924C683.387 18.1924 682.493 18.4048 681.769 18.8297C681.056 19.2421 680.488 19.8044 680.063 20.5167C679.65 21.2165 679.35 21.9976 679.163 22.8598C678.988 23.7096 678.901 24.5781 678.901 25.4654V26.2527C678.901 27.1399 678.988 28.0147 679.163 28.8769C679.338 29.7392 679.632 30.5202 680.044 31.2201C680.469 31.9199 681.037 32.4822 681.75 32.9071C682.475 33.3195 683.374 33.5257 684.449 33.5257ZM695.509 26.084V25.6528C695.509 24.1907 695.721 22.8348 696.146 21.5852C696.571 20.323 697.183 19.2296 697.983 18.3048C698.783 17.3676 699.751 16.6428 700.888 16.1304C702.026 15.6056 703.3 15.3431 704.712 15.3431C706.137 15.3431 707.418 15.6056 708.555 16.1304C709.705 16.6428 710.679 17.3676 711.479 18.3048C712.291 19.2296 712.91 20.323 713.335 21.5852C713.76 22.8348 713.972 24.1907 713.972 25.6528V26.084C713.972 27.5461 713.76 28.9019 713.335 30.1516C712.91 31.4013 712.291 32.4947 711.479 33.432C710.679 34.3567 709.711 35.0815 708.574 35.6064C707.449 36.1187 706.174 36.3749 704.75 36.3749C703.325 36.3749 702.044 36.1187 700.907 35.6064C699.77 35.0815 698.795 34.3567 697.983 33.432C697.183 32.4947 696.571 31.4013 696.146 30.1516C695.721 28.9019 695.509 27.5461 695.509 26.084ZM698.976 25.6528V26.084C698.976 27.0962 699.095 28.0522 699.332 28.9519C699.57 29.8392 699.926 30.6265 700.401 31.3138C700.888 32.0011 701.494 32.5447 702.219 32.9446C702.944 33.332 703.788 33.5257 704.75 33.5257C705.7 33.5257 706.531 33.332 707.243 32.9446C707.968 32.5447 708.567 32.0011 709.042 31.3138C709.517 30.6265 709.873 29.8392 710.111 28.9519C710.361 28.0522 710.486 27.0962 710.486 26.084V25.6528C710.486 24.6531 710.361 23.7096 710.111 22.8223C709.873 21.9226 709.511 21.1291 709.024 20.4417C708.549 19.7419 707.949 19.1921 707.224 18.7922C706.512 18.3923 705.675 18.1924 704.712 18.1924C703.763 18.1924 702.925 18.3923 702.2 18.7922C701.488 19.1921 700.888 19.7419 700.401 20.4417C699.926 21.1291 699.57 21.9226 699.332 22.8223C699.095 23.7096 698.976 24.6531 698.976 25.6528Z" fill="#999999"/>
<path d="M598.554 5.51587H583.299V20.7768H598.554V5.51587Z" fill="#999999"/>
<path d="M608.725 5.51587H603.64V15.6898H608.725V5.51587Z" fill="#999999"/>
<path d="M623.981 5.51587H613.81V20.7768H623.981V5.51587Z" fill="#999999"/>
<path d="M613.81 20.7766H598.554V46.2114H613.81V20.7766Z" fill="#999999"/>
<path d="M593.469 36.0374H583.299V46.2113H593.469V36.0374Z" fill="#999999"/>
<path d="M593.469 25.8636H583.299V30.9505H593.469V25.8636Z" fill="#999999"/>
<path opacity="0.8902" d="M623.981 36.0374H618.895V46.2113H623.981V36.0374Z" fill="#999999"/>
<path d="M623.981 25.8636H618.895V30.9505H623.981V25.8636Z" fill="#999999"/>
<path d="M391.503 25.7782H384.586L384.548 22.8727H390.828C391.865 22.8727 392.771 22.6978 393.546 22.3479C394.321 21.998 394.92 21.4981 395.345 20.8483C395.783 20.186 396.001 19.3987 396.001 18.4864C396.001 17.4867 395.808 16.6744 395.42 16.0496C395.045 15.4123 394.464 14.9499 393.677 14.6625C392.902 14.3625 391.915 14.2126 390.715 14.2126H385.392V38.5435H381.774V11.2509H390.715C392.115 11.2509 393.365 11.3946 394.464 11.682C395.564 11.957 396.495 12.3943 397.257 12.9942C398.032 13.5815 398.619 14.3313 399.019 15.2436C399.419 16.1558 399.619 17.2493 399.619 18.5239C399.619 19.6486 399.332 20.6671 398.757 21.5793C398.182 22.4791 397.382 23.2164 396.357 23.7912C395.345 24.3661 394.158 24.7347 392.796 24.8972L391.503 25.7782ZM391.334 38.5435H383.161L385.204 35.6005H391.334C392.484 35.6005 393.458 35.4006 394.258 35.0007C395.07 34.6008 395.689 34.0384 396.114 33.3136C396.539 32.5763 396.751 31.7078 396.751 30.7081C396.751 29.6959 396.57 28.8211 396.208 28.0838C395.845 27.3465 395.277 26.7779 394.502 26.378C393.727 25.9781 392.727 25.7782 391.503 25.7782H386.348L386.385 22.8727H393.433L394.202 23.9224C395.514 24.0349 396.626 24.4098 397.538 25.0471C398.451 25.672 399.144 26.4717 399.619 27.4465C400.106 28.4212 400.35 29.4959 400.35 30.6706C400.35 32.3701 399.975 33.8072 399.225 34.9819C398.488 36.1441 397.445 37.0314 396.095 37.6437C394.745 38.2435 393.158 38.5435 391.334 38.5435ZM408.935 9.75131V38.5435H405.449V9.75131H408.935ZM418.27 18.2615V38.5435H414.784V18.2615H418.27ZM414.521 12.8817C414.521 12.3194 414.69 11.8445 415.027 11.4571C415.377 11.0697 415.89 10.876 416.564 10.876C417.227 10.876 417.733 11.0697 418.083 11.4571C418.445 11.8445 418.626 12.3194 418.626 12.8817C418.626 13.4191 418.445 13.8814 418.083 14.2688C417.733 14.6437 417.227 14.8312 416.564 14.8312C415.89 14.8312 415.377 14.6437 415.027 14.2688C414.69 13.8814 414.521 13.4191 414.521 12.8817ZM427.287 22.2916V38.5435H423.8V18.2615H427.099L427.287 22.2916ZM426.574 27.6339L424.962 27.5777C424.975 26.1906 425.156 24.9097 425.506 23.735C425.856 22.5478 426.374 21.5168 427.062 20.6421C427.749 19.7673 428.605 19.0925 429.63 18.6176C430.654 18.1303 431.842 17.8866 433.191 17.8866C434.141 17.8866 435.016 18.0241 435.815 18.299C436.615 18.5614 437.309 18.98 437.896 19.5549C438.484 20.1297 438.94 20.867 439.265 21.7668C439.589 22.6665 439.752 23.7537 439.752 25.0284V38.5435H436.284V25.1971C436.284 24.1349 436.103 23.2851 435.741 22.6478C435.391 22.0105 434.891 21.5481 434.241 21.2607C433.591 20.9608 432.829 20.8108 431.954 20.8108C430.929 20.8108 430.073 20.992 429.386 21.3544C428.699 21.7168 428.149 22.2167 427.736 22.854C427.324 23.4913 427.024 24.2224 426.837 25.0471C426.662 25.8594 426.574 26.7217 426.574 27.6339ZM439.714 25.722L437.39 26.4343C437.403 25.3221 437.584 24.2536 437.934 23.2289C438.296 22.2042 438.815 21.2919 439.489 20.4921C440.177 19.6923 441.02 19.0613 442.02 18.5989C443.02 18.124 444.163 17.8866 445.45 17.8866C446.538 17.8866 447.5 18.0303 448.337 18.3177C449.187 18.6051 449.899 19.0488 450.474 19.6486C451.061 20.2359 451.505 20.992 451.805 21.9167C452.105 22.8415 452.255 23.9412 452.255 25.2158V38.5435H448.768V25.1784C448.768 24.0412 448.587 23.1602 448.225 22.5353C447.875 21.898 447.375 21.4544 446.725 21.2044C446.088 20.942 445.325 20.8108 444.438 20.8108C443.676 20.8108 443.001 20.942 442.414 21.2044C441.826 21.4669 441.333 21.8293 440.933 22.2916C440.533 22.7415 440.227 23.2601 440.014 23.8475C439.814 24.4348 439.714 25.0596 439.714 25.722ZM460.971 22.1604V46.3413H457.485V18.2615H460.671L460.971 22.1604ZM474.636 28.2338V28.6274C474.636 30.102 474.461 31.4704 474.111 32.7325C473.761 33.9822 473.249 35.0694 472.574 35.9942C471.912 36.9189 471.093 37.6375 470.119 38.1498C469.144 38.6622 468.025 38.9184 466.763 38.9184C465.476 38.9184 464.339 38.7059 463.352 38.281C462.364 37.8561 461.527 37.2376 460.84 36.4253C460.153 35.613 459.603 34.6383 459.19 33.5011C458.79 32.3639 458.516 31.083 458.366 29.6584V27.559C458.516 26.0594 458.797 24.716 459.209 23.5288C459.621 22.3416 460.165 21.3294 460.84 20.4921C461.527 19.6424 462.358 18.9988 463.333 18.5614C464.308 18.1115 465.432 17.8866 466.707 17.8866C467.982 17.8866 469.113 18.1365 470.1 18.6364C471.087 19.1238 471.918 19.8236 472.593 20.7358C473.268 21.6481 473.774 22.7415 474.111 24.0162C474.461 25.2783 474.636 26.6842 474.636 28.2338ZM471.15 28.6274V28.2338C471.15 27.2215 471.043 26.2718 470.831 25.3845C470.618 24.4848 470.287 23.6975 469.837 23.0227C469.4 22.3354 468.838 21.798 468.15 21.4106C467.463 21.0107 466.645 20.8108 465.695 20.8108C464.82 20.8108 464.058 20.9608 463.408 21.2607C462.771 21.5606 462.227 21.9667 461.777 22.4791C461.327 22.979 460.959 23.5538 460.671 24.2036C460.396 24.8409 460.19 25.5033 460.053 26.1906V31.0455C460.303 31.9203 460.652 32.745 461.102 33.5198C461.552 34.2821 462.152 34.9007 462.902 35.3756C463.652 35.8379 464.595 36.0691 465.732 36.0691C466.67 36.0691 467.476 35.8754 468.15 35.488C468.838 35.0881 469.4 34.5445 469.837 33.8572C470.287 33.1699 470.618 32.3826 470.831 31.4954C471.043 30.5956 471.15 29.6396 471.15 28.6274Z" fill="#999999"/>
<path d="M358.265 18.4782C361.074 18.4782 363.35 16.2007 363.35 13.3913C363.35 10.5818 361.074 8.30432 358.265 8.30432C355.457 8.30432 353.18 10.5818 353.18 13.3913C353.18 16.2007 355.457 18.4782 358.265 18.4782Z" fill="#999999"/>
<path d="M340.467 13.3913C339.48 13.3913 338.514 13.4777 337.568 13.6304C336.592 10.5426 333.703 8.30432 330.296 8.30432C326.086 8.30432 322.668 11.7228 322.668 15.9348C322.668 18.2697 323.721 20.3604 325.374 21.7593C323.66 24.4961 322.668 27.7263 322.668 31.1956C322.668 41.0287 330.637 49 340.467 49C350.296 49 358.265 41.0287 358.265 31.1956C358.265 21.3625 350.296 13.3913 340.467 13.3913ZM347.408 36.2826C346.528 34.7616 344.891 33.7391 343.009 33.7391C341.128 33.7391 339.49 34.7616 338.611 36.2826C338.178 35.5348 337.924 34.665 337.924 33.7391C337.924 30.9311 340.202 28.6522 343.009 28.6522C345.816 28.6522 348.095 30.9311 348.095 33.7391C348.095 34.665 347.84 35.5348 347.408 36.2826Z" fill="#999999"/>
<path d="M66.3567 25.1715H60.7676L60.7373 22.8238H65.8114C66.6495 22.8238 67.3816 22.6825 68.0076 22.3997C68.6337 22.117 69.1184 21.7131 69.4617 21.188C69.8151 20.6529 69.9918 20.0167 69.9918 19.2796C69.9918 18.4718 69.8353 17.8154 69.5223 17.3105C69.2193 16.7956 68.7498 16.4219 68.1137 16.1897C67.4876 15.9474 66.6899 15.8262 65.7205 15.8262H61.4189V35.4863H58.4957V13.433H65.7205C66.8514 13.433 67.8612 13.5492 68.7498 13.7814C69.6384 14.0036 70.3907 14.357 71.0066 14.8417C71.6327 15.3163 72.1073 15.9221 72.4304 16.6592C72.7535 17.3964 72.9151 18.2799 72.9151 19.3099C72.9151 20.2187 72.6828 21.0416 72.2183 21.7787C71.7538 22.5058 71.1076 23.1015 70.2796 23.566C69.4617 24.0305 68.5024 24.3284 67.4018 24.4597L66.3567 25.1715ZM66.2203 35.4863H59.6165L61.2675 33.1083H66.2203C67.1493 33.1083 67.9369 32.9467 68.5832 32.6236C69.2395 32.3005 69.7394 31.8461 70.0827 31.2604C70.426 30.6646 70.5977 29.9629 70.5977 29.1551C70.5977 28.3371 70.4513 27.6303 70.1584 27.0346C69.8656 26.4388 69.4061 25.9793 68.7801 25.6562C68.154 25.3331 67.3462 25.1715 66.3567 25.1715H62.1914L62.2217 22.8238H67.9167L68.5378 23.672C69.598 23.7629 70.4967 24.0658 71.2338 24.5808C71.9709 25.0857 72.5314 25.732 72.9151 26.5196C73.3089 27.3072 73.5058 28.1756 73.5058 29.1248C73.5058 30.498 73.2029 31.6593 72.597 32.6084C72.0012 33.5475 71.1581 34.2645 70.0675 34.7592C68.977 35.2439 67.6946 35.4863 66.2203 35.4863ZM76.6562 27.4738V27.1254C76.6562 25.944 76.8279 24.8484 77.1712 23.8387C77.5145 22.8188 78.0093 21.9352 78.6556 21.188C79.3018 20.4307 80.0844 19.845 81.0033 19.431C81.9222 19.0069 82.9521 18.7949 84.0931 18.7949C85.2443 18.7949 86.2793 19.0069 87.1982 19.431C88.1272 19.845 88.9148 20.4307 89.561 21.188C90.2174 21.9352 90.7172 22.8188 91.0605 23.8387C91.4038 24.8484 91.5755 25.944 91.5755 27.1254V27.4738C91.5755 28.6552 91.4038 29.7508 91.0605 30.7606C90.7172 31.7703 90.2174 32.6539 89.561 33.4112C88.9148 34.1584 88.1322 34.7441 87.2133 35.1682C86.3045 35.5822 85.2746 35.7892 84.1234 35.7892C82.9723 35.7892 81.9373 35.5822 81.0184 35.1682C80.0995 34.7441 79.3119 34.1584 78.6556 33.4112C78.0093 32.6539 77.5145 31.7703 77.1712 30.7606C76.8279 29.7508 76.6562 28.6552 76.6562 27.4738ZM79.4583 27.1254V27.4738C79.4583 28.2917 79.5543 29.0642 79.7461 29.7912C79.938 30.5081 80.2258 31.1443 80.6095 31.6997C81.0033 32.255 81.493 32.6943 82.0787 33.0174C82.6643 33.3304 83.3459 33.4869 84.1234 33.4869C84.8909 33.4869 85.5624 33.3304 86.1379 33.0174C86.7236 32.6943 87.2083 32.255 87.592 31.6997C87.9757 31.1443 88.2635 30.5081 88.4553 29.7912C88.6573 29.0642 88.7583 28.2917 88.7583 27.4738V27.1254C88.7583 26.3176 88.6573 25.5552 88.4553 24.8383C88.2635 24.1113 87.9706 23.4701 87.5768 22.9147C87.1931 22.3493 86.7084 21.905 86.1228 21.5818C85.5472 21.2587 84.8707 21.0971 84.0931 21.0971C83.3257 21.0971 82.6492 21.2587 82.0635 21.5818C81.488 21.905 81.0033 22.3493 80.6095 22.9147C80.2258 23.4701 79.938 24.1113 79.7461 24.8383C79.5543 25.5552 79.4583 26.3176 79.4583 27.1254ZM94.3473 27.4738V27.1254C94.3473 25.944 94.519 24.8484 94.8623 23.8387C95.2056 22.8188 95.7004 21.9352 96.3466 21.188C96.9929 20.4307 97.7754 19.845 98.6943 19.431C99.6132 19.0069 100.643 18.7949 101.784 18.7949C102.935 18.7949 103.97 19.0069 104.889 19.431C105.818 19.845 106.606 20.4307 107.252 21.188C107.908 21.9352 108.408 22.8188 108.752 23.8387C109.095 24.8484 109.267 25.944 109.267 27.1254V27.4738C109.267 28.6552 109.095 29.7508 108.752 30.7606C108.408 31.7703 107.908 32.6539 107.252 33.4112C106.606 34.1584 105.823 34.7441 104.904 35.1682C103.996 35.5822 102.966 35.7892 101.814 35.7892C100.663 35.7892 99.6284 35.5822 98.7095 35.1682C97.7906 34.7441 97.003 34.1584 96.3466 33.4112C95.7004 32.6539 95.2056 31.7703 94.8623 30.7606C94.519 29.7508 94.3473 28.6552 94.3473 27.4738ZM97.1494 27.1254V27.4738C97.1494 28.2917 97.2453 29.0642 97.4372 29.7912C97.629 30.5081 97.9168 31.1443 98.3005 31.6997C98.6943 32.255 99.1841 32.6943 99.7697 33.0174C100.355 33.3304 101.037 33.4869 101.814 33.4869C102.582 33.4869 103.253 33.3304 103.829 33.0174C104.415 32.6943 104.899 32.255 105.283 31.6997C105.667 31.1443 105.955 30.5081 106.146 29.7912C106.348 29.0642 106.449 28.2917 106.449 27.4738V27.1254C106.449 26.3176 106.348 25.5552 106.146 24.8383C105.955 24.1113 105.662 23.4701 105.268 22.9147C104.884 22.3493 104.399 21.905 103.814 21.5818C103.238 21.2587 102.562 21.0971 101.784 21.0971C101.017 21.0971 100.34 21.2587 99.7546 21.5818C99.179 21.905 98.6943 22.3493 98.3005 22.9147C97.9168 23.4701 97.629 24.1113 97.4372 24.8383C97.2453 25.5552 97.1494 26.3176 97.1494 27.1254ZM115.567 22.3543V35.4863H112.75V19.0978H115.416L115.567 22.3543ZM114.992 26.671L113.689 26.6256C113.699 25.5048 113.846 24.4698 114.129 23.5206C114.411 22.5613 114.83 21.7282 115.386 21.0214C115.941 20.3146 116.633 19.7693 117.461 19.3856C118.289 18.9918 119.248 18.7949 120.339 18.7949C121.106 18.7949 121.813 18.906 122.459 19.1281C123.105 19.3402 123.666 19.6784 124.14 20.1429C124.615 20.6074 124.983 21.2032 125.246 21.9302C125.509 22.6572 125.64 23.5357 125.64 24.5657V35.4863H122.838V24.702C122.838 23.8437 122.691 23.1571 122.399 22.6421C122.116 22.1271 121.712 21.7535 121.187 21.5212C120.662 21.2789 120.046 21.1577 119.339 21.1577C118.511 21.1577 117.819 21.3041 117.264 21.597C116.708 21.8898 116.264 22.2937 115.931 22.8087C115.598 23.3237 115.355 23.9144 115.204 24.5808C115.063 25.2372 114.992 25.9339 114.992 26.671ZM125.61 25.1261L123.731 25.7017C123.741 24.803 123.888 23.9396 124.171 23.1116C124.463 22.2836 124.883 21.5465 125.428 20.9002C125.983 20.254 126.665 19.7441 127.473 19.3705C128.28 18.9867 129.204 18.7949 130.244 18.7949C131.123 18.7949 131.9 18.911 132.577 19.1433C133.264 19.3755 133.839 19.734 134.304 20.2187C134.778 20.6932 135.137 21.3041 135.379 22.0514C135.621 22.7986 135.743 23.6872 135.743 24.7171V35.4863H132.925V24.6869C132.925 23.768 132.779 23.0561 132.486 22.5512C132.203 22.0362 131.799 21.6778 131.274 21.4758C130.759 21.2638 130.143 21.1577 129.426 21.1577C128.811 21.1577 128.265 21.2638 127.791 21.4758C127.316 21.6879 126.917 21.9807 126.594 22.3543C126.271 22.7178 126.024 23.1369 125.852 23.6115C125.69 24.086 125.61 24.5909 125.61 25.1261ZM146.784 35.7892C145.643 35.7892 144.608 35.5973 143.679 35.2136C142.76 34.8198 141.968 34.2695 141.301 33.5627C140.645 32.8558 140.14 32.0177 139.787 31.0484C139.433 30.079 139.256 29.0187 139.256 27.8676V27.2315C139.256 25.8986 139.453 24.7121 139.847 23.672C140.241 22.6219 140.776 21.7333 141.453 21.0063C142.129 20.2792 142.897 19.7289 143.755 19.3553C144.613 18.9817 145.502 18.7949 146.421 18.7949C147.592 18.7949 148.602 18.9968 149.45 19.4007C150.308 19.8047 151.01 20.3701 151.555 21.0971C152.101 21.8141 152.505 22.6623 152.767 23.6417C153.03 24.6111 153.161 25.6714 153.161 26.8225V28.0797H140.923V25.7925H150.359V25.5805C150.318 24.8535 150.167 24.1466 149.904 23.46C149.652 22.7734 149.248 22.2079 148.693 21.7636C148.137 21.3193 147.38 21.0971 146.421 21.0971C145.785 21.0971 145.199 21.2335 144.664 21.5061C144.129 21.7686 143.669 22.1624 143.285 22.6875C142.902 23.2126 142.604 23.8538 142.392 24.6111C142.18 25.3684 142.074 26.2419 142.074 27.2315V27.8676C142.074 28.6451 142.18 29.3772 142.392 30.0638C142.614 30.7404 142.932 31.3361 143.346 31.8511C143.77 32.3661 144.28 32.77 144.876 33.0628C145.482 33.3557 146.168 33.5021 146.936 33.5021C147.925 33.5021 148.763 33.3001 149.45 32.8962C150.137 32.4923 150.738 31.9521 151.252 31.2756L152.949 32.6236C152.595 33.1588 152.146 33.6687 151.601 34.1534C151.056 34.6381 150.384 35.0319 149.586 35.3348C148.799 35.6377 147.865 35.7892 146.784 35.7892ZM159.235 21.6727V35.4863H156.433V19.0978H159.159L159.235 21.6727ZM164.354 19.0069L164.339 21.6121C164.107 21.5616 163.885 21.5313 163.673 21.5212C163.471 21.5011 163.238 21.491 162.976 21.491C162.33 21.491 161.759 21.5919 161.264 21.7939C160.769 21.9958 160.35 22.2786 160.007 22.6421C159.664 23.0056 159.391 23.4398 159.189 23.9447C158.997 24.4395 158.871 24.9847 158.811 25.5805L158.023 26.0349C158.023 25.0453 158.119 24.1163 158.311 23.2479C158.513 22.3795 158.821 21.6121 159.235 20.9457C159.649 20.2691 160.174 19.7441 160.81 19.3705C161.456 18.9867 162.224 18.7949 163.112 18.7949C163.314 18.7949 163.546 18.8201 163.809 18.8706C164.071 18.911 164.253 18.9564 164.354 19.0069ZM176.002 32.6842V24.2476C176.002 23.6014 175.87 23.0409 175.608 22.5664C175.356 22.0817 174.972 21.7081 174.457 21.4455C173.942 21.183 173.306 21.0517 172.548 21.0517C171.842 21.0517 171.221 21.1729 170.685 21.4152C170.16 21.6576 169.746 21.9756 169.443 22.3694C169.151 22.7633 169.004 23.1874 169.004 23.6417H166.202C166.202 23.0561 166.353 22.4755 166.656 21.8999C166.959 21.3243 167.394 20.8043 167.959 20.3398C168.535 19.8652 169.221 19.4916 170.019 19.219C170.827 18.9363 171.725 18.7949 172.715 18.7949C173.907 18.7949 174.957 18.9968 175.865 19.4007C176.784 19.8047 177.501 20.4156 178.016 21.2335C178.541 22.0413 178.804 23.0561 178.804 24.2779V31.9117C178.804 32.457 178.849 33.0376 178.94 33.6535C179.041 34.2695 179.188 34.7996 179.379 35.2439V35.4863H176.456C176.315 35.1631 176.204 34.734 176.123 34.1988C176.042 33.6535 176.002 33.1487 176.002 32.6842ZM176.486 25.5502L176.517 27.5192H173.684C172.887 27.5192 172.175 27.5849 171.549 27.7161C170.923 27.8373 170.398 28.0241 169.973 28.2766C169.549 28.529 169.226 28.8471 169.004 29.2308C168.782 29.6044 168.671 30.0436 168.671 30.5485C168.671 31.0635 168.787 31.533 169.019 31.9571C169.251 32.3812 169.6 32.7195 170.064 32.972C170.539 33.2143 171.12 33.3355 171.806 33.3355C172.664 33.3355 173.422 33.1537 174.078 32.7902C174.735 32.4267 175.255 31.9824 175.638 31.4573C176.032 30.9322 176.244 30.4223 176.274 29.9275L177.471 31.2756C177.4 31.6997 177.208 32.1692 176.895 32.6842C176.582 33.1992 176.163 33.6939 175.638 34.1685C175.123 34.633 174.507 35.0218 173.79 35.3348C173.084 35.6377 172.286 35.7892 171.397 35.7892C170.287 35.7892 169.312 35.5721 168.474 35.1379C167.646 34.7037 167 34.1231 166.535 33.3961C166.081 32.6589 165.854 31.836 165.854 30.9272C165.854 30.0487 166.025 29.2762 166.369 28.6098C166.712 27.9332 167.207 27.3728 167.853 26.9285C168.499 26.4741 169.277 26.1308 170.186 25.8986C171.094 25.6663 172.109 25.5502 173.23 25.5502H176.486ZM186.014 22.5966V35.4863H183.211V19.0978H185.862L186.014 22.5966ZM185.347 26.671L184.181 26.6256C184.191 25.5048 184.358 24.4698 184.681 23.5206C185.004 22.5613 185.458 21.7282 186.044 21.0214C186.63 20.3146 187.326 19.7693 188.134 19.3856C188.952 18.9918 189.856 18.7949 190.845 18.7949C191.653 18.7949 192.38 18.906 193.026 19.1281C193.673 19.3402 194.223 19.6835 194.677 20.1581C195.142 20.6327 195.495 21.2486 195.738 22.0059C195.98 22.7532 196.101 23.667 196.101 24.7474V35.4863H193.284V24.7171C193.284 23.8588 193.158 23.1722 192.905 22.6572C192.653 22.1322 192.284 21.7535 191.8 21.5212C191.315 21.2789 190.719 21.1577 190.012 21.1577C189.315 21.1577 188.679 21.3041 188.104 21.597C187.538 21.8898 187.049 22.2937 186.635 22.8087C186.231 23.3237 185.913 23.9144 185.68 24.5808C185.458 25.2372 185.347 25.9339 185.347 26.671ZM210.975 19.0978H213.519V35.1379C213.519 36.5819 213.227 37.8138 212.641 38.8336C212.055 39.8535 211.237 40.626 210.187 41.151C209.147 41.6862 207.946 41.9538 206.582 41.9538C206.017 41.9538 205.351 41.8629 204.583 41.6812C203.826 41.5095 203.079 41.2116 202.341 40.7875C201.614 40.3735 201.003 39.8131 200.509 39.1063L201.978 37.4402C202.665 38.2682 203.381 38.8437 204.129 39.1669C204.886 39.49 205.633 39.6515 206.37 39.6515C207.259 39.6515 208.026 39.4849 208.673 39.1517C209.319 38.8185 209.819 38.3237 210.172 37.6674C210.536 37.0211 210.717 36.2234 210.717 35.2742V22.7027L210.975 19.0978ZM199.691 27.4738V27.1557C199.691 25.9036 199.837 24.7676 200.13 23.7478C200.433 22.7178 200.862 21.8343 201.417 21.0971C201.983 20.36 202.665 19.7946 203.462 19.4007C204.26 18.9968 205.159 18.7949 206.158 18.7949C207.188 18.7949 208.087 18.9766 208.854 19.3402C209.632 19.6936 210.288 20.2136 210.823 20.9002C211.369 21.5768 211.798 22.3947 212.111 23.354C212.424 24.3132 212.641 25.3987 212.762 26.6105V28.0039C212.651 29.2055 212.434 30.286 212.111 31.2453C211.798 32.2045 211.369 33.0224 210.823 33.699C210.288 34.3755 209.632 34.8956 208.854 35.2591C208.077 35.6125 207.168 35.7892 206.128 35.7892C205.149 35.7892 204.26 35.5822 203.462 35.1682C202.675 34.7542 201.998 34.1736 201.433 33.4264C200.867 32.6791 200.433 31.8006 200.13 30.7909C199.837 29.771 199.691 28.6653 199.691 27.4738ZM202.493 27.1557V27.4738C202.493 28.2917 202.574 29.0591 202.735 29.7761C202.907 30.493 203.164 31.1241 203.508 31.6694C203.861 32.2146 204.31 32.6438 204.856 32.9568C205.401 33.2597 206.052 33.4112 206.81 33.4112C207.739 33.4112 208.506 33.2143 209.112 32.8205C209.718 32.4267 210.197 31.9067 210.551 31.2604C210.914 30.6142 211.197 29.9124 211.399 29.1551V25.5048C211.288 24.9494 211.116 24.4142 210.884 23.8992C210.662 23.3742 210.369 22.9097 210.006 22.5058C209.652 22.0918 209.213 21.7636 208.688 21.5212C208.163 21.2789 207.547 21.1577 206.84 21.1577C206.072 21.1577 205.411 21.3193 204.856 21.6424C204.31 21.9554 203.861 22.3896 203.508 22.945C203.164 23.4903 202.907 24.1264 202.735 24.8535C202.574 25.5704 202.493 26.3378 202.493 27.1557Z" fill="#999999"/>
<path d="M18.1831 23.3166C25.9889 18.4127 36.5204 22.0448 32.1166 30.6265C27.7128 39.2031 -12.5521 23.3064 3.9495 31.2065C20.4511 39.1065 26.8127 55.1966 33.5659 39.9866C40.3191 24.7765 48.4555 -8.13608 25.5719 11.8659C2.68837 31.8678 8.43977 29.4311 18.1831 23.3166Z" fill="#999999"/>
</svg>
